<svg xmlns="http://www.w3.org/2000/svg" width="640" height="480"><style>.a{stop-color:#2e486c;}.b{stop-color:#344f77;}.c{stop-color:#c6e4e6;}.d{stop-color:#0d3d5a;}.e{opacity:0.06;stroke-width:3;}</style><defs><linearGradient><stop offset="0" class="a"/><stop offset="1" stop-color="#34527b"/></linearGradient><linearGradient><stop offset="0" class="a"/><stop offset="1" stop-color="#35547e"/></linearGradient><linearGradient><stop offset="0" stop-color="#314b71"/><stop offset="1" stop-color="#3c5d8c"/></linearGradient><linearGradient><stop offset="0" class="b"/><stop offset="1" stop-color="#4b71ac"/></linearGradient><linearGradient><stop offset="0" stop-color="#5078b3"/><stop offset="1" class="b"/></linearGradient><linearGradient><stop offset="0" stop-color="#43679b"/><stop offset="1" stop-color="#2d4669"/></linearGradient><linearGradient><stop offset="0" stop-color="#b1d8df"/><stop offset="1" stop-color="#729fb7"/></linearGradient><linearGradient><stop offset="0" class="c"/><stop offset="1" stop-color="#4c758e"/></linearGradient><linearGradient><stop offset="0" class="d"/><stop offset="1" class="c"/></linearGradient><linearGradient><stop offset="0" stop-color="#678fb5"/><stop offset="1" stop-color="#bcdee2"/></linearGradient><linearGradient><stop offset="0" class="d"/><stop offset="1" class="c"/></linearGradient><linearGradient><stop offset="0" class="d"/><stop offset="1" class="c"/></linearGradient><linearGradient><stop offset="0" stop-color="#071c26"/><stop offset="0.5" stop-color="#1a3245"/><stop offset="1" class="b"/></linearGradient><linearGradient xlink:href="#linearGradient4252" x1="321.608" y1="-1.003" x2="321.608" y2="388.142" gradientUnits="userSpaceOnUse"/><linearGradient xlink:href="#linearGradient4266" gradientUnits="userSpaceOnUse" gradientTransform="matrix(0.81867882,0,0,0.81867882,117.14462,56.853528)" x1="241.872" y1="205.221" x2="218.498" y2="390.55"/><filter x="-0.245" width="1.489" y="-0.229" height="1.458"><feGaussianBlur stdDeviation="8.2730041"/></filter><linearGradient xlink:href="#linearGradient3213" x1="322.05" y1="415.816" x2="322.05" y2="505.816" gradientUnits="userSpaceOnUse"/><linearGradient xlink:href="#linearGradient3221" x1="76.32" y1="281.672" x2="76.32" y2="445.397" gradientUnits="userSpaceOnUse"/><linearGradient xlink:href="#linearGradient3229" x1="494.487" y1="405.428" x2="494.487" y2="267.423" gradientUnits="userSpaceOnUse"/><linearGradient xlink:href="#linearGradient3237" x1="312.185" y1="366.262" x2="312.185" y2="281.784" gradientUnits="userSpaceOnUse"/><linearGradient xlink:href="#linearGradient3245" x1="446.915" y1="346.182" x2="446.915" y2="291.765" gradientUnits="userSpaceOnUse"/><linearGradient xlink:href="#linearGradient3253" x1="161.476" y1="346.182" x2="161.476" y2="296.241" gradientUnits="userSpaceOnUse"/></defs><rect width="644.13" height="483.373" x="-0.456" y="-1.003" style="fill:url(#linearGradient4258);stroke-width:3"/><path d="M181.406 40.531C181.309 40.552 181.215 40.583 181.125 40.625 165.09 47.542 153.875 63.505 153.875 82.063 153.875 106.956 174.075 127.156 198.969 127.156 213.529 127.156 226.505 120.248 234.75 109.531 235.09 109.082 235.086 108.404 234.74 107.959 234.394 107.514 233.738 107.343 233.219 107.563 228.059 109.788 222.386 111.031 216.406 111.031 192.908 111.031 173.875 91.998 173.875 68.5 173.875 58.75 177.147 49.763 182.656 42.594 183.293 41.775 182.427 40.346 181.406 40.531L181.406 40.531z" style="fill:#fff;filter:url(#filter4412);opacity:0.6;stroke-width:3"/><path d="M413.531 366.262L227.185 366.262C256.133 342.677 316.085 308.158 326.129 307.351 340.542 306.193 384.031 350.239 413.531 366.262z" style="fill:url(#linearGradient3243);stroke-width:3"/><path d="M450.536 309.347C458.27 309.838 482.899 336.054 505.368 346.182L388.463 346.182C406.623 331.386 446.277 309.511 450.536 309.347z" style="fill:url(#linearGradient3251);stroke-width:3"/><path d="M522.447 339.486C511.745 339.486 431.552 385.115 386.488 405.428L620.956 405.428C584.533 375.752 534.563 339.486 522.447 339.486z" style="fill:url(#linearGradient3235);stroke-width:3"/><path d="M155.829 305.778C161.602 305.164 183.788 336.054 206.257 346.182L89.351 346.182C107.512 331.386 149.607 306.44 155.829 305.778z" style="fill:url(#linearGradient3259);stroke-width:3"/><path d="M153.75 306.375C143.221 310.26 106.1 332.535 89.344 346.188L133.688 346.188C140.413 339.853 146.087 333.293 147.781 327.969 150.194 320.386 152.255 312.5 153.75 306.375z" class="e"/><path d="M79.972 321.699C88.996 323.117 220.501 403.123 294.758 445.313L-116.68 445.313C-16.867 393.996 69.571 320.064 79.972 321.699z" style="fill:url(#linearGradient3227);stroke-width:3"/><path d="M326.125 307.344C316.081 308.151 256.135 342.665 227.188 366.25L289.938 366.25C304.209 357.534 317.313 348.68 321.031 343.531 326.612 335.804 327.77 319.249 327.813 307.406 327.216 307.333 326.648 307.302 326.125 307.344z" class="e"/><path d="M651.844 305.745C651.844 305.745 631.192 259.277 626.028 263.149 620.865 267.021 521.075 477.336 376.908 429.66 311.685 408.09 246.933 323.072 224.786 316.731 215.114 313.962-7.745 474.837-7.745 474.837L-7.745 505.816 647.972 501.943 651.844 305.745 651.844 305.745z" style="fill:url(#linearGradient3219);stroke-width:3"/><path d="M198.35 47.346C190.696 47.346 183.393 48.901 176.781 51.745 169.688 60.956 165.491 72.508 165.491 85.033 165.491 115.178 189.93 139.617 220.075 139.617 227.745 139.617 235.021 138.035 241.644 135.179 248.726 125.972 252.934 114.444 252.934 101.93 252.934 71.785 228.495 47.346 198.35 47.346L198.35 47.346z" style="opacity:0.04;stroke-width:3"/><path d="M176.742 51.784C157.341 60.153 143.766 79.458 143.766 101.93 143.766 132.075 168.206 156.514 198.35 156.514 215.981 156.514 231.665 148.15 241.644 135.179 235.021 138.035 227.745 139.617 220.075 139.617 189.93 139.617 165.491 115.178 165.491 85.033 165.491 72.528 169.669 60.988 176.742 51.784L176.742 51.784zM241.644 135.179C242.085 134.605 242.51 134.018 242.928 133.427 242.509 134.02 242.086 134.603 241.644 135.179zM228.874 56.651C230.326 57.632 231.73 58.692 233.078 59.804 231.731 58.692 230.326 57.632 228.874 56.651zM235.064 61.518C235.71 62.105 236.315 62.73 236.933 63.347 236.309 62.723 235.717 62.111 235.064 61.518zM240.476 67.202C241.588 68.55 242.648 69.955 243.629 71.406 242.648 69.955 241.588 68.55 240.476 67.202zM252.156 111.118C252.029 111.864 251.884 112.602 251.727 113.337 251.884 112.602 252.029 111.864 252.156 111.118z" style="fill:#fff;stroke-width:3"/><path d="M224.531 316.688C211.656 316.457-7.75 474.844-7.75 474.844L-7.75 505.813 78.969 505.313C116.485 473.555 175.862 421.968 196.563 396.563 217.864 370.42 224.601 336.343 226.719 317.438 226.049 317.149 225.388 316.892 224.781 316.719 224.706 316.697 224.633 316.689 224.531 316.688z" class="e"/><path d="M626.281 263C626.193 263.036 626.112 263.096 626.031 263.156 620.868 267.029 521.073 477.333 376.906 429.656 368.248 426.793 359.606 422.798 351.063 418.031L349.313 419.188C349.313 419.188 472.947 476.81 526.094 458.781 572.943 442.889 620.828 356.956 623.656 325.844 625.301 307.754 625.993 281.778 626.281 263z" class="e"/><path d="M79.438 321.688C67.419 322.349-11.189 388.619-104 438.594L-103.156 445.313 -48.281 445.313C-5.182 426.456 51.266 399.891 66.469 383.844 83.728 365.626 84.091 338.33 82.531 322.625 81.365 322.112 80.454 321.764 79.969 321.688 79.806 321.662 79.637 321.677 79.438 321.688z" class="e"/><path d="M450.531 309.344C446.273 309.507 406.629 331.391 388.469 346.188L429.031 346.188C436.74 340.106 445.592 332.351 448 327 450.25 322 451.125 315.125 451.438 309.5 451.119 309.419 450.807 309.361 450.531 309.344z" class="e"/><path d="M522.438 339.5C511.736 339.5 431.565 385.124 386.5 405.438L458.594 405.438C478.303 394.098 504.759 378.337 513.5 370.5 521.989 362.889 524.658 349.66 525.406 339.969 524.267 339.655 523.251 339.5 522.438 339.5z" style="opacity:0.05;stroke-width:3"/></svg>